STARTFONT 2.1
FONT -FontForge-Fez-Regular-R-Normal--8-80-75-75-C-80-ISO10646-1
SIZE 8 75 75
FONTBOUNDINGBOX 7 7 0 -2
COMMENT "Generated by fontforge, http://fontforge.sourceforge.net"
COMMENT "Copyright (c) 2015, peko,,,"
STARTPROPERTIES 34
FOUNDRY "FontForge"
FAMILY_NAME "Fez"
WEIGHT_NAME "Regular"
SLANT "R"
SETWIDTH_NAME "Normal"
ADD_STYLE_NAME ""
PIXEL_SIZE 8
POINT_SIZE 80
RESOLUTION_X 75
RESOLUTION_Y 75
SPACING "C"
AVERAGE_WIDTH 80
CHARSET_REGISTRY "ISO10646"
CHARSET_ENCODING "1"
FONTNAME_REGISTRY ""
CHARSET_COLLECTIONS "ISO10646-1"
FONT_NAME "Fez"
FACE_NAME "Fez"
COPYRIGHT "Copyright (c) 2015, peko,,,"
FONT_VERSION "001.000"
FONT_ASCENT 6
FONT_DESCENT 2
UNDERLINE_POSITION -1
UNDERLINE_THICKNESS 1
X_HEIGHT 4
CAP_HEIGHT 4
RAW_ASCENT 800
RAW_DESCENT 200
NORM_SPACE 8
RELATIVE_WEIGHT 40
RELATIVE_SETWIDTH 50
FIGURE_WIDTH 8
AVG_LOWERCASE_WIDTH 80
AVG_UPPERCASE_WIDTH 80
ENDPROPERTIES
CHARS 95
STARTCHAR space
ENCODING 32
SWIDTH 1000 0
DWIDTH 8 0
BBX 7 1 0 1
BITMAP
AA
ENDCHAR
STARTCHAR exclam
ENCODING 33
SWIDTH 1000 0
DWIDTH 8 0
BBX 1 7 3 -2
BITMAP
80
80
80
80
80
00
80
ENDCHAR
STARTCHAR quotedbl
ENCODING 34
SWIDTH 1000 0
DWIDTH 8 0
BBX 3 3 2 0
BITMAP
A0
A0
A0
ENDCHAR
STARTCHAR numbersign
ENCODING 35
SWIDTH 1000 0
DWIDTH 8 0
BBX 7 7 0 -2
BITMAP
44
FE
44
44
44
FE
44
ENDCHAR
STARTCHAR dollar
ENCODING 36
SWIDTH 1000 0
DWIDTH 8 0
BBX 7 7 0 -2
BITMAP
FE
80
80
FE
02
02
FE
ENDCHAR
STARTCHAR percent
ENCODING 37
SWIDTH 1000 0
DWIDTH 8 0
BBX 7 7 0 -2
BITMAP
DE
10
10
10
10
10
F6
ENDCHAR
STARTCHAR ampersand
ENCODING 38
SWIDTH 1000 0
DWIDTH 8 0
BBX 5 6 1 -1
BITMAP
70
50
F8
88
88
F8
ENDCHAR
STARTCHAR quotesingle
ENCODING 39
SWIDTH 1000 0
DWIDTH 8 0
BBX 1 3 3 0
BITMAP
80
80
80
ENDCHAR
STARTCHAR parenleft
ENCODING 40
SWIDTH 1000 0
DWIDTH 8 0
BBX 2 7 5 -2
BITMAP
C0
80
80
80
80
80
C0
ENDCHAR
STARTCHAR parenright
ENCODING 41
SWIDTH 1000 0
DWIDTH 8 0
BBX 2 7 0 -2
BITMAP
C0
40
40
40
40
40
C0
ENDCHAR
STARTCHAR asterisk
ENCODING 42
SWIDTH 1000 0
DWIDTH 8 0
BBX 3 3 2 0
BITMAP
E0
A0
E0
ENDCHAR
STARTCHAR plus
ENCODING 43
SWIDTH 1000 0
DWIDTH 8 0
BBX 3 3 2 0
BITMAP
40
E0
40
ENDCHAR
STARTCHAR comma
ENCODING 44
SWIDTH 1000 0
DWIDTH 8 0
BBX 3 3 2 0
BITMAP
60
40
C0
ENDCHAR
STARTCHAR hyphen
ENCODING 45
SWIDTH 1000 0
DWIDTH 8 0
BBX 3 1 2 1
BITMAP
E0
ENDCHAR
STARTCHAR period
ENCODING 46
SWIDTH 1000 0
DWIDTH 8 0
BBX 1 1 3 1
BITMAP
80
ENDCHAR
STARTCHAR slash
ENCODING 47
SWIDTH 1000 0
DWIDTH 8 0
BBX 7 7 0 -2
BITMAP
1E
10
10
10
10
10
F0
ENDCHAR
STARTCHAR zero
ENCODING 48
SWIDTH 1000 0
DWIDTH 8 0
BBX 7 7 0 -2
BITMAP
FE
82
82
82
82
82
FE
ENDCHAR
STARTCHAR one
ENCODING 49
SWIDTH 1000 0
DWIDTH 8 0
BBX 7 7 0 -2
BITMAP
FE
92
92
92
82
82
FE
ENDCHAR
STARTCHAR two
ENCODING 50
SWIDTH 1000 0
DWIDTH 8 0
BBX 7 7 0 -2
BITMAP
FE
82
82
9E
82
82
FE
ENDCHAR
STARTCHAR three
ENCODING 51
SWIDTH 1000 0
DWIDTH 8 0
BBX 7 7 0 -2
BITMAP
FE
82
82
92
92
92
FE
ENDCHAR
STARTCHAR four
ENCODING 52
SWIDTH 1000 0
DWIDTH 8 0
BBX 7 7 0 -2
BITMAP
FE
82
82
F2
82
82
FE
ENDCHAR
STARTCHAR five
ENCODING 53
SWIDTH 1000 0
DWIDTH 8 0
BBX 7 7 0 -2
BITMAP
FE
92
92
9E
82
82
FE
ENDCHAR
STARTCHAR six
ENCODING 54
SWIDTH 1000 0
DWIDTH 8 0
BBX 7 7 0 -2
BITMAP
FE
82
82
9E
92
92
FE
ENDCHAR
STARTCHAR seven
ENCODING 55
SWIDTH 1000 0
DWIDTH 8 0
BBX 7 7 0 -2
BITMAP
FE
82
82
F2
92
92
FE
ENDCHAR
STARTCHAR eight
ENCODING 56
SWIDTH 1000 0
DWIDTH 8 0
BBX 7 7 0 -2
BITMAP
FE
92
92
F2
82
82
FE
ENDCHAR
STARTCHAR nine
ENCODING 57
SWIDTH 1000 0
DWIDTH 8 0
BBX 7 7 0 -2
BITMAP
FE
92
92
F2
92
92
FE
ENDCHAR
STARTCHAR colon
ENCODING 58
SWIDTH 1000 0
DWIDTH 8 0
BBX 1 5 3 -1
BITMAP
80
80
00
80
80
ENDCHAR
STARTCHAR semicolon
ENCODING 59
SWIDTH 1000 0
DWIDTH 8 0
BBX 5 1 1 1
BITMAP
D8
ENDCHAR
STARTCHAR less
ENCODING 60
SWIDTH 1000 0
DWIDTH 8 0
BBX 3 3 2 0
BITMAP
E0
80
E0
ENDCHAR
STARTCHAR equal
ENCODING 61
SWIDTH 1000 0
DWIDTH 8 0
BBX 3 3 2 0
BITMAP
E0
00
E0
ENDCHAR
STARTCHAR greater
ENCODING 62
SWIDTH 1000 0
DWIDTH 8 0
BBX 3 3 2 0
BITMAP
E0
20
E0
ENDCHAR
STARTCHAR question
ENCODING 63
SWIDTH 1000 0
DWIDTH 8 0
BBX 5 7 1 -2
BITMAP
F8
88
08
08
38
00
20
ENDCHAR
STARTCHAR at
ENCODING 64
SWIDTH 1000 0
DWIDTH 8 0
BBX 7 7 0 -2
BITMAP
FE
82
BA
AA
BE
82
FE
ENDCHAR
STARTCHAR A
ENCODING 65
SWIDTH 1000 0
DWIDTH 8 0
BBX 7 7 0 -2
BITMAP
FE
FE
10
C6
FE
FE
FE
ENDCHAR
STARTCHAR B
ENCODING 66
SWIDTH 1000 0
DWIDTH 8 0
BBX 7 7 0 -2
BITMAP
FE
FE
C6
D6
06
FE
FE
ENDCHAR
STARTCHAR C
ENCODING 67
SWIDTH 1000 0
DWIDTH 8 0
BBX 7 7 0 -2
BITMAP
FE
FE
F0
F6
F0
FE
FE
ENDCHAR
STARTCHAR D
ENCODING 68
SWIDTH 1000 0
DWIDTH 8 0
BBX 7 7 0 -2
BITMAP
FE
FE
FE
FE
1E
DE
DE
ENDCHAR
STARTCHAR E
ENCODING 69
SWIDTH 1000 0
DWIDTH 8 0
BBX 7 7 0 -2
BITMAP
FE
FE
1E
DE
C0
FE
FE
ENDCHAR
STARTCHAR F
ENCODING 70
SWIDTH 1000 0
DWIDTH 8 0
BBX 7 7 0 -2
BITMAP
FE
FE
D6
06
D6
FE
FE
ENDCHAR
STARTCHAR G
ENCODING 71
SWIDTH 1000 0
DWIDTH 8 0
BBX 7 7 0 -2
BITMAP
F6
F6
E6
EE
E6
F6
F6
ENDCHAR
STARTCHAR H
ENCODING 72
SWIDTH 1000 0
DWIDTH 8 0
BBX 7 7 0 -2
BITMAP
FE
FE
C6
D6
C6
F6
F6
ENDCHAR
STARTCHAR I
ENCODING 73
SWIDTH 1000 0
DWIDTH 8 0
BBX 7 7 0 -2
BITMAP
D6
D6
C6
FE
FE
FE
FE
ENDCHAR
STARTCHAR J
ENCODING 74
SWIDTH 1000 0
DWIDTH 8 0
BBX 7 7 0 -2
BITMAP
FE
FE
FE
FE
F0
F6
F6
ENDCHAR
STARTCHAR K
ENCODING 75
SWIDTH 1000 0
DWIDTH 8 0
BBX 7 7 0 -2
BITMAP
F6
F6
F6
F6
C6
DE
DE
ENDCHAR
STARTCHAR L
ENCODING 76
SWIDTH 1000 0
DWIDTH 8 0
BBX 7 7 0 -2
BITMAP
FE
FE
C6
EE
C6
EE
EE
ENDCHAR
STARTCHAR M
ENCODING 77
SWIDTH 1000 0
DWIDTH 8 0
BBX 7 7 0 -2
BITMAP
FE
FE
FE
C6
10
FE
FE
ENDCHAR
STARTCHAR N
ENCODING 78
SWIDTH 1000 0
DWIDTH 8 0
BBX 7 7 0 -2
BITMAP
FE
FE
C0
D6
C6
FE
FE
ENDCHAR
STARTCHAR O
ENCODING 79
SWIDTH 1000 0
DWIDTH 8 0
BBX 7 7 0 -2
BITMAP
FE
FE
1E
DE
1E
FE
FE
ENDCHAR
STARTCHAR P
ENCODING 80
SWIDTH 1000 0
DWIDTH 8 0
BBX 7 7 0 -2
BITMAP
F6
F6
F0
FE
FE
FE
FE
ENDCHAR
STARTCHAR Q
ENCODING 81
SWIDTH 1000 0
DWIDTH 8 0
BBX 7 7 0 -2
BITMAP
F6
F6
C6
DE
DE
DE
DE
ENDCHAR
STARTCHAR R
ENCODING 82
SWIDTH 1000 0
DWIDTH 8 0
BBX 7 7 0 -2
BITMAP
FE
FE
D6
C0
D6
FE
FE
ENDCHAR
STARTCHAR S
ENCODING 83
SWIDTH 1000 0
DWIDTH 8 0
BBX 7 7 0 -2
BITMAP
DE
DE
CE
EE
CE
DE
DE
ENDCHAR
STARTCHAR T
ENCODING 84
SWIDTH 1000 0
DWIDTH 8 0
BBX 7 7 0 -2
BITMAP
DE
DE
C6
D6
C6
FE
FE
ENDCHAR
STARTCHAR U
ENCODING 85
SWIDTH 1000 0
DWIDTH 8 0
BBX 7 7 0 -2
BITMAP
FE
FE
FE
FE
C6
D6
D6
ENDCHAR
STARTCHAR V
ENCODING 86
SWIDTH 1000 0
DWIDTH 8 0
BBX 7 7 0 -2
BITMAP
FE
FE
FE
C6
D6
D6
D6
ENDCHAR
STARTCHAR W
ENCODING 87
SWIDTH 1000 0
DWIDTH 8 0
BBX 7 7 0 -2
BITMAP
DE
DE
1E
FE
FE
FE
FE
ENDCHAR
STARTCHAR X
ENCODING 88
SWIDTH 1000 0
DWIDTH 8 0
BBX 7 7 0 -2
BITMAP
F6
F6
F6
C6
DE
DE
DE
ENDCHAR
STARTCHAR Y
ENCODING 89
SWIDTH 1000 0
DWIDTH 8 0
BBX 7 7 0 -2
BITMAP
FE
FE
C6
EE
C6
EE
EE
ENDCHAR
STARTCHAR Z
ENCODING 90
SWIDTH 1000 0
DWIDTH 8 0
BBX 7 7 0 -2
BITMAP
FE
FE
06
F6
F0
FE
FE
ENDCHAR
STARTCHAR bracketleft
ENCODING 91
SWIDTH 1000 0
DWIDTH 8 0
BBX 4 7 3 -2
BITMAP
F0
80
80
80
80
80
F0
ENDCHAR
STARTCHAR backslash
ENCODING 92
SWIDTH 1000 0
DWIDTH 8 0
BBX 7 7 0 -2
BITMAP
F0
10
10
10
10
10
1E
ENDCHAR
STARTCHAR bracketright
ENCODING 93
SWIDTH 1000 0
DWIDTH 8 0
BBX 4 7 0 -2
BITMAP
F0
10
10
10
10
10
F0
ENDCHAR
STARTCHAR asciicircum
ENCODING 94
SWIDTH 1000 0
DWIDTH 8 0
BBX 5 7 1 -2
BITMAP
20
70
A8
20
20
20
20
ENDCHAR
STARTCHAR underscore
ENCODING 95
SWIDTH 1000 0
DWIDTH 8 0
BBX 7 1 0 -2
BITMAP
FE
ENDCHAR
STARTCHAR grave
ENCODING 96
SWIDTH 1000 0
DWIDTH 8 0
BBX 3 3 2 0
BITMAP
C0
40
60
ENDCHAR
STARTCHAR a
ENCODING 97
SWIDTH 1000 0
DWIDTH 8 0
BBX 7 7 0 -2
BITMAP
FE
82
EE
BA
82
82
FE
ENDCHAR
STARTCHAR b
ENCODING 98
SWIDTH 1000 0
DWIDTH 8 0
BBX 7 7 0 -2
BITMAP
FE
82
BA
AA
FA
82
FE
ENDCHAR
STARTCHAR c
ENCODING 99
SWIDTH 1000 0
DWIDTH 8 0
BBX 7 7 0 -2
BITMAP
FE
82
8E
8A
8E
82
FE
ENDCHAR
STARTCHAR d
ENCODING 100
SWIDTH 1000 0
DWIDTH 8 0
BBX 7 7 0 -2
BITMAP
FE
82
82
82
E2
A2
FE
ENDCHAR
STARTCHAR e
ENCODING 101
SWIDTH 1000 0
DWIDTH 8 0
BBX 7 7 0 -2
BITMAP
FE
82
E2
A2
BE
82
FE
ENDCHAR
STARTCHAR f
ENCODING 102
SWIDTH 1000 0
DWIDTH 8 0
BBX 7 7 0 -2
BITMAP
FE
82
AA
FA
AA
82
FE
ENDCHAR
STARTCHAR g
ENCODING 103
SWIDTH 1000 0
DWIDTH 8 0
BBX 7 7 0 -2
BITMAP
FE
8A
9A
92
9A
8A
FE
ENDCHAR
STARTCHAR h
ENCODING 104
SWIDTH 1000 0
DWIDTH 8 0
BBX 7 7 0 -2
BITMAP
FE
82
BA
AA
BA
8A
FE
ENDCHAR
STARTCHAR i
ENCODING 105
SWIDTH 1000 0
DWIDTH 8 0
BBX 7 7 0 -2
BITMAP
FE
AA
BA
82
82
82
FE
ENDCHAR
STARTCHAR j
ENCODING 106
SWIDTH 1000 0
DWIDTH 8 0
BBX 7 7 0 -2
BITMAP
FE
82
82
82
8E
8A
FE
ENDCHAR
STARTCHAR k
ENCODING 107
SWIDTH 1000 0
DWIDTH 8 0
BBX 7 7 0 -2
BITMAP
FE
8A
8A
8A
BA
A2
FE
ENDCHAR
STARTCHAR l
ENCODING 108
SWIDTH 1000 0
DWIDTH 8 0
BBX 7 7 0 -2
BITMAP
FE
82
BA
92
BA
92
FE
ENDCHAR
STARTCHAR m
ENCODING 109
SWIDTH 1000 0
DWIDTH 8 0
BBX 7 7 0 -2
BITMAP
FE
82
82
BA
EE
82
FE
ENDCHAR
STARTCHAR n
ENCODING 110
SWIDTH 1000 0
DWIDTH 8 0
BBX 7 7 0 -2
BITMAP
FE
82
BE
AA
BA
82
FE
ENDCHAR
STARTCHAR o
ENCODING 111
SWIDTH 1000 0
DWIDTH 8 0
BBX 7 7 0 -2
BITMAP
FE
82
E2
A2
E2
82
FE
ENDCHAR
STARTCHAR p
ENCODING 112
SWIDTH 1000 0
DWIDTH 8 0
BBX 7 7 0 -2
BITMAP
FE
8A
8E
82
82
82
FE
ENDCHAR
STARTCHAR q
ENCODING 113
SWIDTH 1000 0
DWIDTH 8 0
BBX 7 7 0 -2
BITMAP
FE
8A
BA
A2
A2
A2
FE
ENDCHAR
STARTCHAR r
ENCODING 114
SWIDTH 1000 0
DWIDTH 8 0
BBX 7 7 0 -2
BITMAP
FE
82
AA
BE
AA
82
FE
ENDCHAR
STARTCHAR s
ENCODING 115
SWIDTH 1000 0
DWIDTH 8 0
BBX 7 7 0 -2
BITMAP
FE
A2
B2
92
B2
A2
FE
ENDCHAR
STARTCHAR t
ENCODING 116
SWIDTH 1000 0
DWIDTH 8 0
BBX 7 7 0 -2
BITMAP
FE
A2
BA
AA
BA
82
FE
ENDCHAR
STARTCHAR u
ENCODING 117
SWIDTH 1000 0
DWIDTH 8 0
BBX 7 7 0 -2
BITMAP
FE
82
82
82
BA
AA
FE
ENDCHAR
STARTCHAR v
ENCODING 118
SWIDTH 1000 0
DWIDTH 8 0
BBX 7 7 0 -2
BITMAP
FE
82
82
BA
AA
AA
FE
ENDCHAR
STARTCHAR w
ENCODING 119
SWIDTH 1000 0
DWIDTH 8 0
BBX 7 7 0 -2
BITMAP
FE
A2
E2
82
82
82
FE
ENDCHAR
STARTCHAR x
ENCODING 120
SWIDTH 1000 0
DWIDTH 8 0
BBX 7 7 0 -2
BITMAP
FE
8A
8A
BA
A2
A2
FE
ENDCHAR
STARTCHAR y
ENCODING 121
SWIDTH 1000 0
DWIDTH 8 0
BBX 7 7 0 -2
BITMAP
FE
82
BA
92
BA
92
FE
ENDCHAR
STARTCHAR z
ENCODING 122
SWIDTH 1000 0
DWIDTH 8 0
BBX 7 7 0 -2
BITMAP
FE
82
FA
8A
8E
82
FE
ENDCHAR
STARTCHAR braceleft
ENCODING 123
SWIDTH 1000 0
DWIDTH 8 0
BBX 2 7 5 -2
BITMAP
C0
80
80
C0
80
80
C0
ENDCHAR
STARTCHAR bar
ENCODING 124
SWIDTH 1000 0
DWIDTH 8 0
BBX 1 7 3 -2
BITMAP
80
80
80
80
80
80
80
ENDCHAR
STARTCHAR braceright
ENCODING 125
SWIDTH 1000 0
DWIDTH 8 0
BBX 2 7 0 -2
BITMAP
C0
40
40
C0
40
40
C0
ENDCHAR
STARTCHAR asciitilde
ENCODING 126
SWIDTH 1000 0
DWIDTH 8 0
BBX 5 3 1 0
BITMAP
E0
A8
38
ENDCHAR
ENDFONT
